<?xml version="1.0" encoding="UTF-8"?>
<!-- Created with Inkscape (http://www.inkscape.org/) -->
<svg width="119.2mm" height="88.594mm" version="1.1" viewBox="0 0 119.2 88.594" xmlns="http://www.w3.org/2000/svg">
 <g transform="translate(-35.944 -85.653)" fill-rule="evenodd" stroke-width=".26458">
  <path d="m40.231 85.717c-1.4292 3.9267-2.8584 7.8534-4.2876 11.78h30c-9.3097 25.578-18.619 51.156-27.929 76.734h12.536c9.3097-25.578 18.619-51.156 27.929-76.734h17.464c-9.3095 25.578-18.619 51.156-27.929 76.734h12.536c9.3095-25.578 18.619-51.156 27.929-76.734 8.9958 0.044 18.007-0.08782 26.993 0.06563 12.572 2.2814 7.8929 21.429-3.3217 19.556h-13.164c-1.4297 3.9265-2.8583 7.8535-4.2876 11.78h14.032c15.729 1.2503 20.055 24.963 5.7622 31.669-5.2102 2.9606-11.119 1.5552-16.75 1.883h-15.442c-1.4292 3.9267-2.8584 7.8534-4.2876 11.78 10.568-0.0613 21.149 0.12134 31.71-0.0889 13.961-1.4084 25.882-14.146 25.409-28.487 0.0348-7.8635-3.3968-15.658-9.1643-20.97 10.82-7.4626 11.474-24.892 1.6097-33.359-4.8437-4.5553-11.528-6.0123-17.904-5.6095-29.814-3e-6 -59.629 8e-6 -89.443-5e-6z"/>
  <path d="m258.86 126.91-32.217 88.514h12.536l32.217-88.514z"/>
  <path d="m-321.19 203.62-32.217 88.514h12.536l32.217-88.514z"/>
  <path d="m-291.19 203.62-32.216 88.514h12.536l32.216-88.514z"/>
  <path d="m-261.19 203.62-32.217 88.514h12.536l32.217-88.514z"/>
  <path d="m-351.19 203.62-32.216 88.514h12.536l32.216-88.514z"/>
  <path d="m-58.115 114.81-94.195-1.7e-4 4.2876 11.78 94.195 1.7e-4z"/>
  <path d="m-47.854 143-94.194 3.2e-4 4.2876 11.78 94.194-3e-4z"/>
  <path d="m-37.593 171.19-94.195-1.8e-4 4.2876 11.78 94.195 1.7e-4z"/>
  <path d="m-68.375 86.614-94.194 3.14e-4 4.2876 11.78 94.194-3.1e-4z"/>
  <path d="m-237.84 148.72-94.195 1.7e-4 4.2876-11.78 94.195-1.7e-4z"/>
  <path d="m-227.57 120.53-94.194-3.2e-4 4.2876-11.78 94.194 3e-4z"/>
  <path d="m-217.31 92.336-94.195 1.8e-4 4.2876-11.78 94.195-1.7e-4z"/>
  <path d="m-445.07-70.508-32.217 88.514h12.536l32.217-88.514z"/>
  <path d="m-415.07-70.508-32.216 88.514h12.536l32.216-88.514z"/>
  <path d="m-385.16-58.728-94.195 1.8e-4 4.2876-11.78 94.195-1.7e-4z"/>
  <path d="m-248.1 176.91-94.194-3.2e-4 4.2876-11.78 94.194 3.1e-4z"/>
 </g>
</svg>
